<svg xmlns="http://www.w3.org/2000/svg" viewBox="0 0 195.24 56.03"><defs><style>.cls-1{font-size:48.1px;font-family:Mistral, Mistral;}.cls-2{fill:#33cbff;}.cls-3{fill:#f7931e;}</style></defs><title>Dexter&amp;apos;s Blog logo 2</title><g id="Layer_1" data-name="Layer 1"><text class="cls-1" transform="translate(0 40.03)">D</text><text class="cls-1" transform="translate(23.25 40.03) scale(0.7)">EXTER</text><text class="cls-1" transform="translate(90.32 40.03)">’</text><text class="cls-1" transform="translate(100.3 40.03) scale(0.7)">S</text><text class="cls-1" transform="translate(111.94 40.03)"><tspan xml:space="preserve"> B</tspan></text><text class="cls-1" transform="translate(145.95 40.03) scale(0.7)">LOG</text></g><g id="Layer_2" data-name="Layer 2"><line y1="51.2" x2="185.58" y2="51.2"/><path class="cls-2" d="M187.87,70.43c.27,0,.17-.48.22-.58C187.63,70,187.88,70.56,187.87,70.43Z" transform="translate(-2.5 -22.27)"/><polygon class="cls-2" points="180.84 49.35 180.92 49.14 180.25 49.66 180.84 49.35"/><path class="cls-2" d="M179.12,71.61c.4.89,1.53-.15,2.28.17l.13.2.34-.72C181,71.38,179.76,71.85,179.12,71.61Z" transform="translate(-2.5 -22.27)"/><path class="cls-2" d="M176.86,69.68c.14.34-.49.29.53.1l-.1-.08Z" transform="translate(-2.5 -22.27)"/><path class="cls-2" d="M177.29,69.7c.45,0-.29-.29,0,0Z" transform="translate(-2.5 -22.27)"/><path class="cls-2" d="M175.23,69.9l.59-.31c-.12-.21-.64-.26-.45-.41C174.77,69.35,174.89,69.56,175.23,69.9Z" transform="translate(-2.5 -22.27)"/><path class="cls-2" d="M174.68,70.55l.3-.13C174.93,70.33,174.85,70.3,174.68,70.55Z" transform="translate(-2.5 -22.27)"/><path class="cls-2" d="M175.63,70.14l-.65.28c.09.14.1.43.3-.1C175.23,70.58,175.35,70.33,175.63,70.14Z" transform="translate(-2.5 -22.27)"/><path class="cls-2" d="M176,70.27c.33.2.76.32.17.63C177.28,70.78,177.12,70.15,176,70.27Z" transform="translate(-2.5 -22.27)"/><path class="cls-2" d="M178.9,72.53l.44.26.38-.3C179.53,72.64,178.87,72.25,178.9,72.53Z" transform="translate(-2.5 -22.27)"/><path class="cls-2" d="M171.58,69.43c0,.19.2.51.24.75l.43-.22C172,69.83,171.61,69.71,171.58,69.43Z" transform="translate(-2.5 -22.27)"/><path class="cls-2" d="M171.82,70.18l-.65.33C171.75,70.55,171.86,70.39,171.82,70.18Z" transform="translate(-2.5 -22.27)"/><polygon class="cls-2" points="172.07 49.27 173.13 48.59 171.87 49.28 172.07 49.27"/><polygon class="cls-2" points="166.6 47.14 166.97 46.7 166.31 47.37 166.6 47.14"/><path class="cls-2" d="M167.46,69.49c.27-.37-.37-.62-.08-.84a2.41,2.41,0,0,0-1.17.66A1.29,1.29,0,0,1,167.46,69.49Z" transform="translate(-2.5 -22.27)"/><path class="cls-2" d="M165.63,69.71a3.38,3.38,0,0,0,.58-.4A1.6,1.6,0,0,0,165.63,69.71Z" transform="translate(-2.5 -22.27)"/><path class="cls-2" d="M170.07,70.41a.87.87,0,0,0-.51-.54l.25.54Z" transform="translate(-2.5 -22.27)"/><path class="cls-2" d="M169.82,70.42h0l-.55,0Z" transform="translate(-2.5 -22.27)"/><path class="cls-2" d="M170.13,70.42h-.06C170.09,70.47,170.11,70.48,170.13,70.42Z" transform="translate(-2.5 -22.27)"/><path class="cls-2" d="M172.87,71.05c-.38.3-1.17.62-.4,1.08C172.74,71.76,172.3,71.5,172.87,71.05Z" transform="translate(-2.5 -22.27)"/><path class="cls-2" d="M170.45,71.08l.69.13c0-.14-.14-.35.05-.5Z" transform="translate(-2.5 -22.27)"/><polygon class="cls-2" points="167.61 48.99 167.94 48.82 167.69 48.77 167.61 48.99"/><path class="cls-2" d="M166.81,70.21a1.65,1.65,0,0,1-1,.29,4.06,4.06,0,0,0,1.19.16C167.06,70.5,167.23,70.2,166.81,70.21Z" transform="translate(-2.5 -22.27)"/><path class="cls-2" d="M168.27,70.36l-.06,0S168.28,70.45,168.27,70.36Z" transform="translate(-2.5 -22.27)"/><path class="cls-2" d="M162.2,70.5l.06.1s0-.06,0-.09Z" transform="translate(-2.5 -22.27)"/><path class="cls-2" d="M167.07,70.76a.54.54,0,0,0,.64-.19,2.63,2.63,0,0,1-.7.09C167,70.74,167,70.79,167.07,70.76Z" transform="translate(-2.5 -22.27)"/><path class="cls-2" d="M164.62,70a2.85,2.85,0,0,0,.51.3C165,70.09,164.67,69.83,164.62,70Z" transform="translate(-2.5 -22.27)"/><path class="cls-2" d="M168.11,70.25l0,0C168.05,70.11,168.07,70.16,168.11,70.25Z" transform="translate(-2.5 -22.27)"/><path class="cls-2" d="M168.11,70.25a1.52,1.52,0,0,0-.4.32,2,2,0,0,0,.5-.18A.36.36,0,0,1,168.11,70.25Z" transform="translate(-2.5 -22.27)"/><path class="cls-2" d="M161.1,73.93a.92.92,0,0,1,1.51-.42c.66-.37.22-2-.35-2.91,0,.21,0,.41-.7.71.23.27,1.51.63.93,1.08-.9.25-.74-.18-1.17-.44.37.62-1.15.9-1,1.8l.8-.32C161.17,73.58,160.88,73.8,161.1,73.93Z" transform="translate(-2.5 -22.27)"/><path class="cls-2" d="M163.55,70.65l.28-.06a2.51,2.51,0,0,1-1-.68c-.47.25-.57.43-.6.6l1.38.06Z" transform="translate(-2.5 -22.27)"/><path class="cls-2" d="M165.09,70.58c-.22.54-.89.77-.48,1.36.82,0,.58-.45,1.07-.69-1.33.14.38-.3-.58-.6a3,3,0,0,1,.72-.15,4,4,0,0,1-.69-.24l0,0h0c.06.07.07.11,0,.07h0a.66.66,0,0,1-.06.2c-.38-.11-.06-.14.06-.2a.24.24,0,0,0,0-.08h0l-1.33.3A3.73,3.73,0,0,0,165.09,70.58Z" transform="translate(-2.5 -22.27)"/><path class="cls-2" d="M171.76,73.29a.18.18,0,0,1,0-.13C171.63,73.23,171.6,73.27,171.76,73.29Z" transform="translate(-2.5 -22.27)"/><path class="cls-2" d="M171.21,73c.1-.07.18-.29.49-.23s0,.25,0,.43c.19-.14.66-.38.07-.65l-.1.08c-.53-.19-1.22-.86-1.13-.93A4.06,4.06,0,0,0,171.21,73Z" transform="translate(-2.5 -22.27)"/><path class="cls-2" d="M168.11,71.91l-1.1.26.56.47,0-.28C168.17,72.47,168,72.13,168.11,71.91Z" transform="translate(-2.5 -22.27)"/><polygon class="cls-2" points="159.57 47.97 159.72 47.4 159.08 48.2 159.57 47.97"/><polygon class="cls-2" points="158.13 48.03 158.19 47.54 157.81 47.84 158.13 48.03"/><path class="cls-2" d="M79.5,76.44l-.32.14A1,1,0,0,0,79.5,76.44Z" transform="translate(-2.5 -22.27)"/><path class="cls-2" d="M81.86,76.47l.06-.24C81.81,76.36,81.76,76.46,81.86,76.47Z" transform="translate(-2.5 -22.27)"/><path class="cls-2" d="M125.33,70.36c-.48-.47-1-1.18-1-.63l.15.55A1,1,0,0,1,125.33,70.36Z" transform="translate(-2.5 -22.27)"/><path class="cls-2" d="M101.14,73.59a2.09,2.09,0,0,1,.14.17c.12-.19.23-.36.32-.52Z" transform="translate(-2.5 -22.27)"/><path class="cls-2" d="M100.81,75.84l-.63-.35A2.39,2.39,0,0,0,100.81,75.84Z" transform="translate(-2.5 -22.27)"/><path class="cls-2" d="M66.65,77l-.38.56C66.86,77.56,66.6,77.28,66.65,77Z" transform="translate(-2.5 -22.27)"/><path class="cls-2" d="M145.91,70.5a2.84,2.84,0,0,0-1-.33C145.38,70.48,145.78,71,145.91,70.5Z" transform="translate(-2.5 -22.27)"/><path class="cls-2" d="M80.43,70.68c-.2.1-.28.21-.28.33C80.36,70.92,80.47,70.82,80.43,70.68Z" transform="translate(-2.5 -22.27)"/><path class="cls-2" d="M143.71,70.17a1,1,0,0,0,.22.13,2.48,2.48,0,0,1,1-.13A.89.89,0,0,0,143.71,70.17Z" transform="translate(-2.5 -22.27)"/><path class="cls-2" d="M20,76.56a.53.53,0,0,1-.1-.06C19.92,76.57,20,76.58,20,76.56Z" transform="translate(-2.5 -22.27)"/><path class="cls-2" d="M6.45,71.09a4.18,4.18,0,0,1,.56,0A1,1,0,0,0,6.45,71.09Z" transform="translate(-2.5 -22.27)"/><path class="cls-2" d="M154.85,70.06c.31,0,.05-.06,0,0Z" transform="translate(-2.5 -22.27)"/><path class="cls-2" d="M156.33,72.21a.4.4,0,0,0-.12.26A.52.52,0,0,1,156.33,72.21Z" transform="translate(-2.5 -22.27)"/><path class="cls-2" d="M140.67,73.55h0C140.74,73.65,140.72,73.63,140.67,73.55Z" transform="translate(-2.5 -22.27)"/><path class="cls-2" d="M155.31,70.31a1.68,1.68,0,0,0-.39-.16A1.89,1.89,0,0,0,155.31,70.31Z" transform="translate(-2.5 -22.27)"/><path class="cls-2" d="M155.25,70.05l.26.06C155.55,70,155.52,70,155.25,70.05Z" transform="translate(-2.5 -22.27)"/><path class="cls-2" d="M154.43,70.09a1.61,1.61,0,0,1,.49.06c-.06,0-.09-.07-.07-.09Z" transform="translate(-2.5 -22.27)"/><path class="cls-2" d="M45,75.11l-.06,0C44.64,75.29,44.77,75.25,45,75.11Z" transform="translate(-2.5 -22.27)"/><path class="cls-2" d="M117.39,76l0,0,0,0Z" transform="translate(-2.5 -22.27)"/><path class="cls-2" d="M116.29,76.39c.47-.67.74-.59,1.09-.45L117,74.38Z" transform="translate(-2.5 -22.27)"/><path class="cls-2" d="M73.87,76.59l.77.49c-.93.8-1.6.53-.88,1.21.11-1.7,3-.17,3.1-1.87l.5.36c-.14,0-.16.08-.31.07,1,.81.73-1.23,2-1,.45.13.76.38.45.58l1-.42c.29,0,.22.33-.07.29l1.51-.13v0a6.07,6.07,0,0,1,.93-.85c.39.24-.19.18-.09.39l.83-.41c.34.44-.35.86-.92.8.77,1.69.69-.43,2.37.56l-.79.22c.51,1,1.12.61,2,1.21-.21-.31-1.78-1.51-.88-1.93a1,1,0,0,0,1.08-.16c0,.61.48.46,1.08.42l0,.8c.64-.23.59-.63,1-1,.72.08.87.69,1,1.22,1.15.12-.8-1,.57-1.15,1,.31,1.62,0,2.77-.5.67.28-.12.49.12.72l.59-.64c.15,0,.1.21.08.31.5-.24,0-.8.83-1,.21-.88,1.61,1.28,2.58.28.24.23-.11.49,0,.8A6.89,6.89,0,0,0,99.25,75l.93.53c-.68-.6.2-1.31,1-1.9a6.57,6.57,0,0,0-.59-.66l1.23-.43c.15.13,0,.41-.18.74l.23-.19c.43.29.21.76-.11,1.2l-.44-.49a2.52,2.52,0,0,0-.52,1.49.89.89,0,0,1,.4-.22c-.08.14-.13.25-.09.33s.17-.09.37-.29l.28.89.06-.36,1.61.56c1.14-.89,2.14-2.22,4-2.58-.45.65-.1,1.06-.12,1.84-.5-.82-1.41.35-2.35.18.49.09.38.46.26.58l1.68-.74c0,.63.36.47.8.74-.34-1.26,1.25-.84,1.93-1.22,0,.42-.12.85-1,.75.92.94,1.19-1.47,2.09-.67-.2,0-.31-.06-.39.16.47-.38,1.64-.08,1.37.28h-.21c1.36.15,4.12,0,4.33-1a10.29,10.29,0,0,1-.26,1.5l2.41-3.58c-.21.91.61,3.09-.52,3.6a1.54,1.54,0,0,0,1.41,0c-.22-.13-.55-1.32-.25-1.4.82,1,.57.54,1.59,1.41-.33-.2,0-1.63.55-1.58-.08.21,0,1.41-.14,1.56l1.29-1.41c-.32.26-.05,1.19.24,1.59-.14-.27,1.12,0,1.46-.11l-.55-.33c1.47.21,1.45-2,2.9-1.9-.17.29-.43,1.79.31,2,.34-.72,1.5-3.46,2.78-4l.25.41,1-.47A25.47,25.47,0,0,1,127,75.89c.54.32.15.48,1,.45.29.38-.45.58-.69.6l1.91.25c-.08-.84,1.46-.84,1.39-1.54l-2.08.87A2.59,2.59,0,0,1,131,74.28c.34.34-.26,1.5-.23,1.78.17-.29,1.28-.55,1.41-.35l-.58.45c.76.32,1.23-1.11,2.14-.31.31.05.93,1.08,1,.59a8.8,8.8,0,0,1-.27-4.65,9.75,9.75,0,0,1,2,1.39c.52.75-.77,1.79-.33,2.44a1.2,1.2,0,0,1,.42-.61c.33.2-.13.72.58.61.12-.85,1.45.07.34-.72.69-.24.74.18,1.56.14-.26-.55.73-1.87,1.43-2.12a1.12,1.12,0,0,0,.19.63c1.43.08,2.2.46,3.53.47.13.21.77.46.5.82.19-.15.37-.44.78-.46.79.74-.92.12-.31,1,.05-.49,1.06-.68,1.65-1-.18-.76-1.36-.15-1.94.16a3.22,3.22,0,0,1,2.41-2.64c1.11-.27.48.68.67.53,2.08.18,1.77-1.84,3.5-1.08.69.67,0,1.33.18,1.82-.9.25-1.38-.43-2-.4l.75.32a1.32,1.32,0,0,1-1.22.2c.58.6,3.52.11,5.12.67.29-.23.78-.46.55-.73l-.51.09c-.47-.54,1-.75.31-1a3,3,0,0,1,2.41-.67l.18.76c0-.22-.63-.45-.9-.22.4-.34,1.47,1,1.91,0l-.67-.54c.68-.38,1.53-1.19,2.38-1-.39-.76-.2.08-.8-.8.52,1.1-2.18,0-1.34,1.11-.62-1-1.07-.44-1.88-1.31,0,.25.29.48-.43.36a1.07,1.07,0,0,1-.15.22l-.05,0,0,0s0,0,0,0a1,1,0,0,1,.37.38c-.36.59-1.49.57-1.88.87-.42-.12.18-.29,0-.56l-.57.45c-.06-.56-1.13-.94-.13-1.26l-.9,0a1.91,1.91,0,0,0-1.7-.2c-.43-.12-1.07.62-.7.18l-1.41.35v-.14c-1.39-.07-2.86.93-4.45-.09a3.12,3.12,0,0,1-1.74.16L142,70c-.6.17-1.8-.48-2.06,0-.65-1.3-2.92-.28-4-.51l0,.63a7,7,0,0,0-2.33.4l.06.56c-.78.46-2-.4-3.23-.34.08-.22.39-.16.61,0-1.47-1.27-3.1.92-4.43,0a.7.7,0,0,1-.81,0,.11.11,0,0,0,.08,0h-.13c-.15-.09-.3-.2-.46-.29a1.83,1.83,0,0,0,.38.3,3.62,3.62,0,0,0-1,.22l-.16-.6h-.09c-.38-.22-.3.29-.1.74a1.94,1.94,0,0,0-.51.36c-.3-1-1,.33-1.41-.7-.26.5-1.92.38-2.12,1.44,0-.14-.13-.21.08-.21a1.25,1.25,0,0,0-1.23,0l-.18-.76-.93,1c-.56-.47-.79-.74-.23-1.33-1.36.91-1.1.34-2.25,1.24l.06-.5c-.41,0-1.07.69-1.32.28-.92-.94-4.54-.13-6.9-1,.46,1.46-1.1-.65-1.19.48-.14-.34-.47-.54-.09-.84-1.2.34-1.8-.55-2.63.41-.14-.35.25-.51.13-.71-.1.07-.38.3-.51.09s.18-.29.37-.44C102.25,70,102.13,71,102,72c-.63-.47-.94-.41-1.39.25-.21-.33-.58-.67.19-.79-.43,0-2.63-.48-2.67.32-.13-.2-.6-.06-.71,0a11.19,11.19,0,0,0-2,0l.26.13c-.37,1-.78.22-1.55.33l0-.09c-1.75-.7-.75.33-2.48-.47l.1.6c-.17,1.29-1.53-.76-2.54-.26l.37.34c-.55.44-1.53-1.75-2.08-1.92-.12-.11.19-.18.35-.26-1.44-.76-.18.79-1.26,1-.19-.42.26-1.08-.46-1.16-.36-.34-2.1,1.38-3.08.57.22.32.43.65-.07.89-.76.12-2.06-1.23-2.75-.2a.4.4,0,0,1-.14-.26c-.58.27-1.89.44-2.25,1-.53-2.07-3.62,1-3.61-.9l-1.8.1.05-.19a1.92,1.92,0,0,0-2,.79c-.26-.13-.07-.31,0-.41-1.68-.39-1.85-.31-3.25.65l-.15-.62c-.38.36-2.42-1-4.07-.25a.45.45,0,0,1,.18-.28c-1.85.73-4.43-1.72-5.1.54L56.93,72c1.57.18-.24,1,.41,1.36-.62.13-1.61-.68-.84-.8l.12.11c.28-1.17-2-.41-1.92-1.21-3.11,0-6.14-.6-9.05-.65l.33.92-1-.06c-.27-.21-.36-.71.36-.67-.38-.52-1.21.43-1.23.63-1.42-.37.55-1.07.12-1.09l-.59.07.13.11c-.48.37-.52.77-1.39.72-.55-.18-.28-.56-.5-.6,0-.06-.07-.09-.33,0l-1.28-.08.51.72c-.57.36-1.2,0-.61.78-.87-1.26-4.78-.45-5.31-.84a3.82,3.82,0,0,1-2.55.45.49.49,0,0,1-.45.86c.31-1.67-1.53-.73-2.21-1.93.6.8-2.38.2-1.43,1.33-.7-.13-.05-.63-.58-1-1.66.65-3.66-.42-5.72-.2,0,.22.31.55-.13.88l-1.08-1.1c-.41.11-.38,1.27-1.12.51.11.18.26.46,0,.53-4-1.07-8.23.88-12.32-1.13.55.42.18.46-.24.48.28.1,0,.54,0,.84l-1.71-.83c-.32.83-1.84.06-2,.85l.54-.14c-.72.93,1,2.07.91,3.27.8-1.06,2.13,1.57,3.45,0,.29.25-.25.39-.09.67.33-.52.74-.62,1.49-.39l-.08.12c2.11-.12,3,.38,5.39.72l-.18-.59a1.67,1.67,0,0,1,.86.41c.58-.9-1.44,0-.9-1,.67,1.21,3.59,0,4,1.39.78,0-.23-.69.55-.68l.21.37.2-.48a1,1,0,0,1,.79.86c-.12,0-.35.09-.49.11.67.44,1.88-.14,2.11,0l-.75-.23c2.14-.35,4.75.14,6.82-.61l-.16-.28c1.58-.52,1.27.3,3,.06l-.06.07a1.86,1.86,0,0,1,1.28-.39c-.43.33.83.64.25,1,1.72-.55.85-.43,2-1.47l.26.46a1.56,1.56,0,0,1,1.29-.76c-.71.4.55.71-.25,1.23,1.82,1,2.7-1,3.53.46.84-1.28-1.57-.71-1.1-1-.39-.41.69-1,1.26-.83s1,1.65,2.44,1.62c-.14,0-.15.09-.3.09.55.32,1.08-.45,1.75.09.37-.78.87,0,1-1L43,75.36c.76-.26,1.48-1.42,2.73-.86a2,2,0,0,1-.73.61c.37.29.71-.19,1.08.11-.1,1-1.62.21-2.44,1,.4.42,1.54-.72,1.13.35.59-1.36,1.44.18,2.43-.86l-.06.59c.15-.09.48-.37.76-.36l-.52.77c.8-.66,1.55.57,2.31.22-1.6,0-.36-.72-1-1.15C50.65,75,49.8,77.3,52,77c-.3.08-1.12-.36-.65-.64a2.77,2.77,0,0,1,1.24.67c1.47-.13-.23-.61.4-1,.5.72.72-.29,1.36-.52v.6c1.67.39.44-1.26,1.95-.79l-.64.84.79-.22-.16.69a2,2,0,0,1,2-.19.84.84,0,0,1,.85-1.11c.51.36-.28.57.77.48-.24.38-.5.86-1,.3,0,.2-.23.38-.28.57.55.41,1.37.1,1.75.09a.74.74,0,0,1-.41-.14l1.52-.84c.24.23,0,.41-.13.59.3-.06.52-.34,1-.39-.11.49-.09,1-.73,1.22l1.45-.54c.1.21.75.59.56.77.81.28,2-1,3-.58a.62.62,0,0,1,.39-.25c1,.11,1.89.71,3.08,0l.68.88c.93-.2-.92-1.11.64-1.44,1.09-.28.41.75.79,1,.55-.44,1.5-1.34,2.51-.63C74.44,76.66,74.18,76.53,73.87,76.59Zm11.49-.38c-.22.12-.66.51-.83.16C84.79,75.68,85,76,85.36,76.21Zm17.48-1.46c-.17.2-.43.1-.72-.12A1,1,0,0,1,102.84,74.75Zm48.67-4.2,0,0C151,70.35,151.16,70.44,151.51,70.55Zm1,.27a.19.19,0,0,0,.05-.26c-.07.16-.3.17-.56.12C152.1,70.84,152.23,71,152.54,70.82Zm-110.79.23.21.16C41.5,71.39,41.63,71.23,41.75,71.05Z" transform="translate(-2.5 -22.27)"/><path class="cls-2" d="M100.85,75.58a.78.78,0,0,1-.09-.33C100.67,75.35,100.67,75.47,100.85,75.58Z" transform="translate(-2.5 -22.27)"/><path class="cls-2" d="M66.72,76.91h0a.76.76,0,0,0,0,.11Z" transform="translate(-2.5 -22.27)"/><path class="cls-2" d="M136.56,75.93a.93.93,0,0,1-.41-.31C136.14,75.77,136.24,75.89,136.56,75.93Z" transform="translate(-2.5 -22.27)"/><path class="cls-2" d="M158,69.79l-.66.16a.76.76,0,0,1,.59.2C157.93,70,157.8,69.8,158,69.79Z" transform="translate(-2.5 -22.27)"/><path class="cls-2" d="M163.74,73.52c.1-.07.21,0,.3-.08l0-.28C163.6,73.18,163.32,73.4,163.74,73.52Z" transform="translate(-2.5 -22.27)"/><path class="cls-2" d="M158.62,71.8c0,.5.47.33.93.24h-.08C159.6,71.33,159.11,71.56,158.62,71.8Z" transform="translate(-2.5 -22.27)"/><path class="cls-2" d="M159.66,72a1.19,1.19,0,0,1,.42,0C160.14,71.72,159.91,72,159.66,72Z" transform="translate(-2.5 -22.27)"/><path class="cls-2" d="M153.85,70.48c.22.13.14-.65.26-.44C154.36,69.39,152.65,70.82,153.85,70.48Z" transform="translate(-2.5 -22.27)"/><polygon class="cls-2" points="156.49 51.2 156.32 50.58 156.06 51.08 156.49 51.2"/><path class="cls-2" d="M155.34,73l.74.17c0-.1.08-.17.2-.21C155.82,73,155.32,72.82,155.34,73Z" transform="translate(-2.5 -22.27)"/><path class="cls-2" d="M156.28,73a.9.9,0,0,0,.59-.11A2.07,2.07,0,0,0,156.28,73Z" transform="translate(-2.5 -22.27)"/><polygon class="cls-2" points="155.48 51.39 155.26 51.26 154.74 51.21 155.48 51.39"/><path class="cls-2" d="M147.39,72.89l-.81.18c-.08.21.14.34.44.26S147.51,73.09,147.39,72.89Z" transform="translate(-2.5 -22.27)"/><path class="cls-2" d="M149.83,74.6c-.22-.13-.23-.27-.36-.47l0,.77Z" transform="translate(-2.5 -22.27)"/><path class="cls-2" d="M147.47,74.78c-.08.22-1.17.62-.14.57C147.41,75.14,148.22,75,147.47,74.78Z" transform="translate(-2.5 -22.27)"/><polygon class="cls-2" points="132.81 51.53 133.01 51.52 132.98 50.25 132.81 51.53"/><path class="cls-2" d="M124.59,76.85c1,.3.23-.79,1.09-.41.23-.3-.7-.31-.47-.57C124.63,76.19,124.33,76,124.59,76.85Z" transform="translate(-2.5 -22.27)"/><path class="cls-2" d="M125.21,75.87a2,2,0,0,0,.29-.19A.93.93,0,0,0,125.21,75.87Z" transform="translate(-2.5 -22.27)"/><polygon class="cls-2" points="1.7 48.14 1.08 47.88 1.48 48.3 1.7 48.14"/><path class="cls-2" d="M3,71.35l-.15-.81-.37.74C2.64,71.24,2.91,71.17,3,71.35Z" transform="translate(-2.5 -22.27)"/><path class="cls-2" d="M87.07,77.84l.05-.2c-.1-.21-.24-.22-.53-.26Z" transform="translate(-2.5 -22.27)"/><polygon class="cls-2" points="76.22 54.97 76.37 54.98 76.1 54.25 76.22 54.97"/><path class="cls-2" d="M71.73,78.17c.28,0,.62-.13.91-.1C72,78.2,71.65,77.25,71.73,78.17Z" transform="translate(-2.5 -22.27)"/><path class="cls-3" d="M195.57,68.48c2.9,0,2.9-4.5,0-4.5s-2.9,4.5,0,4.5Z" transform="translate(-2.5 -22.27)"/></g></svg>